<svg xmlns="http://www.w3.org/2000/svg" xmlns:xlink="http://www.w3.org/1999/xlink" zoomAndPan="magnify" preserveAspectRatio="xMidYMid meet" version="1.0" viewBox="567.3 243 305.46 324"><defs><clipPath id="97a71f8a78"><path d="M 567.113281 458 L 593 458 L 593 533 L 567.113281 533 Z M 567.113281 458 " clip-rule="nonzero"/></clipPath></defs><g clip-path="url(#97a71f8a78)"><path fill="#f5f0e5" d="M 585.023438 458.507812 C 584.921875 458.515625 584.816406 458.519531 584.710938 458.519531 C 584.605469 458.519531 584.503906 458.515625 584.398438 458.507812 L 568.640625 458.507812 L 568.640625 458.519531 C 568.277344 458.519531 567.949219 458.671875 567.707031 458.914062 C 567.453125 459.164062 567.296875 459.496094 567.296875 459.847656 L 567.3125 459.847656 L 567.3125 531.398438 L 567.296875 531.398438 C 567.296875 531.753906 567.453125 532.085938 567.703125 532.335938 C 567.945312 532.578125 568.277344 532.726562 568.640625 532.726562 L 591.402344 532.726562 L 591.402344 532.742188 C 591.761719 532.742188 592.09375 532.589844 592.335938 532.347656 L 592.351562 532.335938 C 592.582031 532.101562 592.730469 531.769531 592.730469 531.402344 L 592.730469 459.847656 C 592.730469 459.488281 592.578125 459.15625 592.335938 458.914062 L 592.242188 458.816406 C 592.007812 458.625 591.714844 458.507812 591.402344 458.507812 L 591.402344 458.519531 L 591.402344 458.507812 Z M 585.023438 458.507812 " fill-opacity="1" fill-rule="evenodd"/></g><path fill="#f06543" d="M 736.628906 470.78125 L 759.625 477.480469 C 762.375 478.28125 764.878906 479.519531 767.089844 481.101562 L 767.089844 402.828125 L 736.675781 402.828125 L 736.675781 470.210938 C 736.675781 470.40625 736.660156 470.59375 736.628906 470.78125 Z M 736.628906 470.78125 " fill-opacity="1" fill-rule="evenodd"/><path fill="#f5f0e5" d="M 670.246094 375.445312 L 707.730469 375.445312 C 709.683594 375.445312 711.265625 377.027344 711.265625 378.980469 L 711.265625 416.464844 C 711.265625 418.417969 709.683594 420 707.730469 420 L 670.246094 420 C 668.292969 420 666.710938 418.417969 666.710938 416.464844 L 666.710938 378.980469 C 666.710938 377.027344 668.292969 375.445312 670.246094 375.445312 Z M 643.15625 362.976562 L 643.15625 432.96875 C 644.191406 432.863281 645.222656 432.777344 646.253906 432.714844 C 664.164062 431.652344 681.960938 437.476562 696.0625 451.574219 C 700.9375 456.449219 705.023438 459.484375 709.523438 461.761719 C 714.148438 464.105469 719.347656 465.746094 726.285156 467.765625 L 729.605469 468.734375 L 729.605469 399.292969 C 729.605469 397.339844 731.1875 395.757812 733.140625 395.757812 L 770.625 395.757812 C 772.578125 395.757812 774.160156 397.339844 774.160156 399.292969 L 774.160156 483.703125 C 774.160156 484.898438 773.570312 485.953125 772.664062 486.59375 C 773.3125 487.46875 773.902344 488.390625 774.433594 489.34375 C 776.46875 493.011719 777.59375 497.1875 777.605469 501.476562 L 796.910156 492.867188 L 796.910156 362.976562 L 720.035156 301.523438 Z M 643.15625 362.976562 " fill-opacity="1" fill-rule="evenodd"/><path fill="#f06543" d="M 673.78125 382.515625 L 704.195312 382.515625 L 704.195312 412.933594 L 673.78125 412.933594 Z M 673.78125 382.515625 " fill-opacity="1" fill-rule="evenodd"/><path fill="#f06543" d="M 636.089844 434.058594 L 636.089844 368.628906 L 623.3125 378.839844 C 621.792969 380.054688 619.582031 379.804688 618.367188 378.289062 C 617.15625 376.769531 617.402344 374.558594 618.921875 373.34375 L 637.152344 358.769531 C 637.320312 358.605469 637.507812 358.457031 637.703125 358.332031 L 717.839844 294.273438 C 719.167969 293.214844 721.027344 293.269531 722.28125 294.316406 L 802.363281 358.332031 C 802.5625 358.457031 802.746094 358.605469 802.914062 358.769531 L 821.148438 373.34375 C 822.664062 374.558594 822.914062 376.769531 821.699219 378.289062 C 820.488281 379.804688 818.273438 380.054688 816.757812 378.839844 L 803.980469 368.628906 L 803.980469 489.71875 L 844.871094 471.488281 L 845.039062 471.40625 C 847.246094 470.414062 849.527344 469.773438 851.820312 469.46875 L 851.820312 349.21875 L 720.035156 243 L 588.246094 349.21875 L 588.246094 451.464844 L 591.402344 451.464844 L 591.402344 451.453125 L 591.402344 451.464844 C 593.59375 451.464844 595.589844 452.308594 597.082031 453.683594 C 597.167969 453.757812 597.253906 453.832031 597.335938 453.914062 L 597.363281 453.945312 C 608.753906 443.734375 622.234375 436.882812 636.089844 434.058594 Z M 636.089844 434.058594 " fill-opacity="1" fill-rule="evenodd"/><path fill="#f06543" d="M 802.144531 498.25 C 801.976562 498.34375 801.796875 498.421875 801.613281 498.488281 L 776 509.90625 C 773.875 515.691406 769.757812 520.246094 764.671875 523.039062 C 759.09375 526.101562 752.34375 527.054688 745.765625 525.203125 L 681.515625 507.125 C 679.640625 506.597656 678.546875 504.652344 679.074219 502.773438 C 679.597656 500.898438 681.546875 499.804688 683.421875 500.332031 L 747.671875 518.410156 C 752.40625 519.742188 757.261719 519.054688 761.273438 516.855469 C 765.261719 514.667969 768.410156 510.988281 769.769531 506.316406 C 769.847656 506.050781 769.953125 505.800781 770.085938 505.566406 C 771.128906 501.105469 770.378906 496.5625 768.273438 492.765625 C 766.058594 488.773438 762.351562 485.609375 757.664062 484.246094 L 724.324219 474.53125 C 716.976562 472.390625 711.449219 470.640625 706.347656 468.058594 C 701.125 465.414062 696.480469 461.992188 691.0625 456.574219 C 678.492188 444.003906 662.628906 438.8125 646.671875 439.757812 C 629.996094 440.746094 613.179688 448.40625 599.796875 461.332031 L 599.796875 531.070312 L 734.375 567 L 862.726562 509.183594 L 862.964844 509.082031 C 867.167969 507.113281 870.191406 503.632812 871.691406 499.585938 C 873.195312 495.53125 873.164062 490.914062 871.257812 486.675781 C 871.0625 486.242188 871.292969 486.726562 871.15625 486.4375 C 869.136719 482.125 865.511719 478.996094 861.300781 477.4375 C 859.433594 476.746094 857.453125 476.359375 855.449219 476.316406 L 855.355469 476.320312 C 855.292969 476.320312 855.230469 476.316406 855.167969 476.3125 C 852.734375 476.300781 850.273438 476.789062 847.9375 477.839844 C 847.875 477.871094 847.808594 477.894531 847.742188 477.921875 Z M 802.144531 498.25 " fill-opacity="1" fill-rule="evenodd"/></svg>